<svg width="94" height="50" viewBox="0 0 94 50" fill="none" xmlns="http://www.w3.org/2000/svg">
<g clip-path="url(#clip0_0_153)">
<path d="M34.3182 49.9976C36.7595 49.9976 38.7385 48.0761 38.7385 45.7058C38.7385 43.3355 36.7595 41.4139 34.3182 41.4139C31.877 41.4139 29.898 43.3355 29.898 45.7058C29.898 48.0761 31.877 49.9976 34.3182 49.9976Z" fill="#EAC544"/>
<path d="M71.9961 49.9976C74.4374 49.9976 76.4164 48.0761 76.4164 45.7058C76.4164 43.3355 74.4374 41.4139 71.9961 41.4139C69.5549 41.4139 67.5759 43.3355 67.5759 45.7058C67.5759 48.0761 69.5549 49.9976 71.9961 49.9976Z" fill="#EAC544"/>
<path d="M17.3761 26.3535C16.1013 24.0386 12.5642 1.91563 12.5909 1.72903C12.2542 1.1919 11.7698 0.756697 11.1921 0.472411C10.6055 0.166516 9.95075 0.00434881 9.28487 0C9.1475 0.000659307 9.01262 0.0356375 8.8932 0.101568C8.7667 0.165344 8.6329 0.24093 8.4991 0.32124L8.37503 0.557445C8.37503 0.557445 7.40195 4.5068 6.96649 6.53345C6.53104 8.56009 6.05423 10.582 5.55552 12.6087C5.05682 14.6353 4.50946 16.636 3.92074 18.6248C3.33202 20.6137 2.64113 22.5505 1.86753 24.4567C1.78482 24.6433 1.64615 24.9291 1.45397 25.3023C1.26178 25.6755 1.05014 26.0676 0.843358 26.455C0.636577 26.8424 0.439528 27.2038 0.264373 27.5392C0.0892173 27.8746 -0.14189 28.3423 0.123275 28.7202C0.420066 29.1383 2.1327 29.8139 2.43922 29.9013C2.70907 29.9767 2.988 30.0172 3.26877 30.0217C3.35148 30.0217 4.41215 29.8399 4.80138 29.3131C5.22356 28.729 5.59076 28.1092 5.89853 27.4613C6.23772 26.7701 6.53502 26.0603 6.78891 25.3354C7.03218 24.6268 7.21463 24.1213 7.32897 23.8261C7.93914 23.7172 8.55459 23.6383 9.17297 23.5899C9.82007 23.5332 10.4355 23.5095 11.017 23.5095H11.99C12.3163 23.5065 12.6421 23.5334 12.9631 23.5899C13.238 24.2465 17.8042 27.1259 17.3761 26.3535ZM11.3697 21.7073C11.0074 21.6391 10.6392 21.605 10.2701 21.6057C9.88332 21.6057 9.50381 21.6199 9.13161 21.6459C8.7594 21.6719 8.3799 21.712 7.99067 21.7663C8.54046 20.1003 9.027 18.4303 9.45029 16.7564C9.88088 15.0817 10.2847 13.3976 10.6666 11.7087C10.8564 13.3984 11.0632 15.1148 11.287 16.858C11.5002 18.5676 11.889 20.2523 12.4474 21.8868C12.0776 21.8325 11.7103 21.7711 11.3697 21.7073Z" fill="white"/>
<path d="M31.7493 12.0087C31.7502 12.0189 31.7532 12.0287 31.7583 12.0377C31.7633 12.0466 31.7702 12.0545 31.7785 12.0607C31.7688 12.0252 31.759 12.0087 31.7493 12.0087ZM30.2362 18.0107C30.2641 18.0129 30.2918 18.0177 30.3189 18.0249C30.3728 18.039 30.4284 18.0462 30.4843 18.0461C30.4049 18.0182 30.3205 18.0062 30.2362 18.0107Z" fill="white"/>
<path d="M35.2743 15.4904C35.2899 16.1113 35.1969 16.7302 34.9994 17.321C34.817 17.8194 34.3523 18.2115 33.6006 18.502H33.3038L32.9292 18.4618H32.6859L32.4792 18.4217L32.4378 18.3815C31.9679 18.2759 31.5123 18.1174 31.0803 17.9091C30.6555 17.7156 30.2794 17.4342 29.9783 17.0848L29.8105 16.6124C29.9989 16.1131 30.2275 15.6289 30.4941 15.1644C30.7456 14.6789 30.8534 14.1351 30.8054 13.5936C29.9891 14.3047 29.2719 15.1162 28.672 16.0077C28.0781 16.8916 27.5714 17.828 27.1588 18.8043C26.7394 19.7958 26.3795 20.81 26.0811 21.8419C25.7778 22.8891 25.4883 23.9127 25.2126 24.9126C25.1765 25.078 25.1691 25.248 25.1907 25.4157C25.1907 25.6708 25.2175 25.9377 25.2321 26.2188C25.2467 26.4999 25.2589 26.7834 25.2735 27.0645C25.2881 27.3455 25.2954 27.5369 25.2954 27.6479V28.6541L25.1299 29.0155C24.9041 29.0963 24.6651 29.1371 24.4244 29.136C23.7473 29.1866 23.0708 29.0294 22.4907 28.6865C21.9105 28.3436 21.456 27.8324 21.1914 27.2251C20.8991 26.6012 20.7102 25.9363 20.6318 25.2551C20.5353 24.514 20.4873 23.7676 20.4883 23.0206C20.4883 22.2718 20.5151 21.5372 20.571 20.8286C20.627 20.12 20.6537 19.4964 20.6537 18.9579C20.6541 17.8688 20.5915 16.7805 20.4664 15.6982C20.3429 14.6293 20.2812 13.5544 20.2815 12.4788V12.715C20.2815 12.4976 20.2815 12.2874 20.2596 12.0701C20.2377 11.8528 20.2231 11.6426 20.1988 11.4276C20.1532 11.356 20.1249 11.2752 20.1161 11.1914C20.1655 11.0197 20.2663 10.8659 20.4056 10.7497H20.6124C20.8625 10.7539 21.1097 10.8019 21.3422 10.8914C21.6025 10.9859 21.8458 11.0875 22.072 11.1914L22.3153 11.3119C22.7932 11.5123 23.2182 11.8151 23.5584 12.1977C23.8827 12.5771 24.1422 13.0045 24.3271 13.4637C24.5196 13.9334 24.6718 14.4177 24.782 14.9117C24.8915 15.4101 24.9742 15.8966 25.0253 16.3809C25.2562 15.9081 25.5187 15.4504 25.8111 15.0109C26.1551 14.4937 26.5304 13.9968 26.935 13.5228C27.3408 13.0521 27.7789 12.6086 28.2462 12.1953C28.6426 11.83 29.1053 11.5392 29.611 11.3379L29.6523 11.2977V11.3379L29.6937 11.2977C29.937 11.2434 30.1802 11.182 30.4235 11.1182C30.6743 11.049 30.934 11.0148 31.1947 11.0166L31.0244 11.0568C31.6238 10.9399 32.2462 11.0179 32.7954 11.2788C33.3087 11.5345 33.7619 11.8908 34.1261 12.3252C34.5044 12.772 34.7924 13.2841 34.9751 13.8346C35.1686 14.3666 35.2697 14.9262 35.2743 15.4904Z" fill="white"/>
<path d="M42.5287 11.4465H42.5724C42.5824 11.4344 42.5949 11.4245 42.6092 11.4176C42.6235 11.4106 42.6392 11.4068 42.6552 11.4064C42.6323 11.4039 42.6092 11.4062 42.5874 11.4131C42.5656 11.4201 42.5456 11.4315 42.5287 11.4465Z" fill="white"/>
<path d="M53.2131 29.3108C53.1055 29.1946 52.9884 29.0872 52.8628 28.9895C52.7494 28.9051 52.6316 28.8263 52.5101 28.7533C52.4247 28.7142 52.3528 28.6518 52.3033 28.5738C52.0279 28.1115 51.8316 27.609 51.7219 27.0857C51.5832 26.4952 51.4786 25.9732 51.391 25.5149C51.2287 24.4797 51.1272 23.4364 51.0869 22.3899C51.0456 21.3601 51.014 20.3184 51.0042 19.272C50.9945 18.2256 50.9629 17.1792 50.9215 16.1329C50.8802 15.0865 50.7877 14.0566 50.6515 13.0362V13.1165L50.6101 12.9559V12.9913L50.4033 12.4268L50.5274 12.5874C50.305 12.2109 49.9835 11.8986 49.5957 11.6827C49.3677 11.5168 49.1028 11.405 48.8224 11.3562C48.5419 11.3074 48.2535 11.323 47.9804 11.4017C47.7979 11.4418 47.7371 11.4867 47.793 11.5434L47.4622 11.9048L47.2968 12.3063H46.8808C46.5595 12.1583 46.2178 12.0565 45.8663 12.004C45.5176 11.9441 45.1646 11.9109 44.8105 11.9048H44.5186L44.4359 11.9449C43.1455 11.9418 41.8911 12.3575 40.872 13.126C39.7731 13.9374 38.8392 14.9402 38.1181 16.0832C37.3563 17.2676 36.7638 18.5469 36.3569 19.8862C35.9678 21.0781 35.7581 22.3184 35.7341 23.5686C35.7256 24.3313 35.9014 25.0853 36.2474 25.77C36.5797 26.4409 37.0441 27.0419 37.6146 27.5392C38.796 28.5604 40.3217 29.1259 41.9034 29.1289H42.1467C42.283 29.1289 42.3559 29.1147 42.3559 29.0887H42.1881C42.4313 29.0344 42.6041 28.9942 42.6746 28.9683C42.8338 28.9042 42.9862 28.825 43.1295 28.7321L43.0882 28.7722C43.4458 28.6659 43.8034 28.3352 44.1659 27.7872C44.5539 27.1868 44.9001 26.5618 45.2022 25.9165C45.5224 25.2401 45.8058 24.5479 46.0512 23.8426C46.2945 23.16 46.4551 22.6309 46.5694 22.2553C46.6789 23.1647 46.8127 24.0859 47.0048 25.0095C47.1674 25.8897 47.4781 26.738 47.9244 27.5203C48.3434 28.264 48.9482 28.8935 49.6833 29.3509C50.4301 29.8233 51.4081 30.0595 52.6268 30.0595C52.7909 30.0566 52.954 30.036 53.1134 29.9981C53.1886 29.9898 53.2579 29.9544 53.3075 29.8988C53.3571 29.8433 53.3833 29.7716 53.381 29.6981C53.378 29.5529 53.3179 29.4144 53.2131 29.3108ZM45.4917 15.7313C45.3092 16.3998 45.0976 17.1792 44.8495 18.065C44.6013 18.9508 44.3191 19.8814 44.0199 20.8617C43.7354 21.7828 43.4033 22.6894 43.0249 23.578C42.7128 24.3183 42.324 25.0258 41.8645 25.6897C41.451 26.2684 41.0204 26.6109 40.5801 26.7149C40.3778 26.1322 40.2798 25.5203 40.2906 24.9055C40.3183 23.969 40.4821 23.041 40.7771 22.149C41.1003 21.068 41.5229 20.0174 42.0397 19.0098C42.5431 18.0138 43.14 17.065 43.8229 16.1754C44.3673 15.4209 45.0735 14.79 45.8931 14.3259C45.7958 14.5904 45.662 15.0628 45.4917 15.7313Z" fill="white"/>
<path d="M67.4689 11.9496L66.3912 14.5644C65.6143 16.5202 64.9307 18.4988 64.3404 20.5003C63.7501 22.5017 63.094 24.493 62.3723 26.4739C62.2231 26.9215 62.0427 27.3587 61.8323 27.7825C61.6188 28.2101 61.3698 28.6201 61.0879 29.0084L60.5892 29.1289V29.169C60.5366 29.2477 60.4561 29.3048 60.3629 29.3297C60.2751 29.3545 60.1843 29.368 60.0929 29.3698C59.7824 29.3591 59.4752 29.305 59.1806 29.2092C58.8233 29.1081 58.4757 28.9769 58.1419 28.8171C57.8131 28.6588 57.5011 28.4697 57.2101 28.2526C56.962 28.0857 56.7565 27.8659 56.6092 27.6101C56.0882 26.6292 55.6982 25.5878 55.4488 24.5111C55.118 23.2237 54.8382 21.8821 54.6193 20.4956C54.4003 19.109 54.2179 17.7154 54.0841 16.3761C53.9503 15.0369 53.8603 13.9054 53.8408 12.996L54.1717 12.6346H54.2957C54.5266 12.6436 54.7558 12.6768 54.9793 12.7339C55.2775 12.8029 55.5689 12.8969 55.8502 13.0149C56.127 13.1296 56.3911 13.2713 56.6384 13.4377C56.8288 13.5489 56.9798 13.7137 57.0715 13.9102C57.558 15.7337 58.0154 17.6257 58.4192 19.5791C58.823 21.5325 59.1709 23.4434 59.475 25.2929C59.5285 25.026 59.6623 24.4733 59.8691 23.6395C60.0759 22.8057 60.3264 21.8443 60.6159 20.7412C60.9054 19.6381 61.2217 18.4878 61.5695 17.2808C61.9174 16.0738 62.258 14.9636 62.6034 13.9432C62.8811 13.0855 63.2134 12.2454 63.5984 11.4276C63.9147 10.7686 64.1847 10.4427 64.4061 10.4427C64.6652 10.4565 64.922 10.4969 65.1724 10.5631C65.8528 10.7277 66.4983 11.0067 67.0796 11.3875C67.3326 11.5741 67.4689 11.763 67.4689 11.9496Z" fill="white"/>
<path d="M74.7256 11.4465H74.767C74.7769 11.4344 74.7895 11.4245 74.8037 11.4175C74.818 11.4106 74.8337 11.4068 74.8497 11.4064C74.8273 11.4042 74.8046 11.4067 74.7832 11.4136C74.7619 11.4205 74.7422 11.4317 74.7256 11.4465Z" fill="white"/>
<path d="M85.4101 29.3108C85.3025 29.1946 85.1854 29.0872 85.0598 28.9895C84.9463 28.9051 84.8286 28.8263 84.7071 28.7533C84.6217 28.7142 84.5498 28.6519 84.5003 28.5738C84.2249 28.1115 84.0286 27.609 83.9189 27.0857C83.7802 26.4952 83.6756 25.9732 83.588 25.5149C83.4235 24.4822 83.3196 23.4412 83.2766 22.397C83.2353 21.3672 83.2036 20.3255 83.1939 19.2791C83.1842 18.2327 83.1526 17.1863 83.1112 16.1399C83.0698 15.0936 82.9774 14.0637 82.8412 13.0433V13.1236L82.7998 12.963V12.9913L82.593 12.4268L82.7171 12.5874C82.4947 12.2109 82.1731 11.8986 81.7854 11.6827C81.5573 11.5168 81.2925 11.405 81.012 11.3562C80.7316 11.3074 80.4432 11.323 80.17 11.4017C79.9876 11.4418 79.9268 11.4867 79.9827 11.5434L79.6519 11.9048L79.4864 12.3063H79.0632C78.7419 12.1583 78.4002 12.0565 78.0487 12.004C77.7 11.9441 77.347 11.9109 76.9929 11.9048H76.701L76.6183 11.9449C75.3279 11.9418 74.0735 12.3575 73.0543 13.126C71.9563 13.9406 71.0241 14.9467 70.3054 16.0927C69.5436 17.277 68.951 18.5564 68.5441 19.8956C68.1551 21.0876 67.9453 22.3279 67.9213 23.5781C67.9158 24.3379 68.0933 25.0885 68.4395 25.77C68.7718 26.4409 69.2363 27.0419 69.8067 27.5392C70.9881 28.5604 72.5138 29.126 74.0956 29.1289H74.3388C74.4751 29.1289 74.548 29.1147 74.548 29.0887H74.3802C74.6235 29.0344 74.7962 28.9943 74.8789 28.9683C75.0381 28.9042 75.1905 28.825 75.3338 28.7321L75.2925 28.7722C75.6501 28.6659 76.0077 28.3352 76.3701 27.7872C76.7581 27.1868 77.1044 26.5618 77.4065 25.9165C77.7267 25.2401 78.0101 24.5479 78.2555 23.8426C78.4988 23.16 78.6593 22.6309 78.7737 22.2553C78.8831 23.1647 79.0169 24.0859 79.2091 25.0095C79.3689 25.8909 79.6771 26.7409 80.1214 27.5251C80.5404 28.2687 81.1452 28.8982 81.8802 29.3556C82.6271 29.8281 83.605 30.0643 84.8238 30.0643C84.9878 30.0613 85.151 30.0407 85.3104 30.0029C85.3856 29.9946 85.4549 29.9591 85.5045 29.9036C85.554 29.848 85.5803 29.7764 85.578 29.7029C85.5762 29.556 85.5161 29.4156 85.4101 29.3108ZM77.6838 15.7313C77.5014 16.3998 77.2897 17.1792 77.0416 18.065C76.7934 18.9508 76.5112 19.8814 76.212 20.8617C75.9275 21.7828 75.5954 22.6894 75.217 23.5781C74.9049 24.3183 74.5161 25.0258 74.0566 25.6897C73.6431 26.2684 73.2125 26.6109 72.7722 26.7149C72.5699 26.1323 72.4719 25.5203 72.4827 24.9055C72.5104 23.969 72.6742 23.041 72.9692 22.149C73.2924 21.068 73.715 20.0174 74.2318 19.0098C74.7352 18.0138 75.3321 17.065 76.015 16.1754C76.5594 15.4209 77.2657 14.79 78.0852 14.3259C77.9928 14.5904 77.859 15.0628 77.6838 15.7313Z" fill="white"/>
<path d="M16.3721 22.8623C16.6651 23.6222 17.0096 24.3624 17.4036 25.0779C17.7224 25.6719 18.1208 26.2224 18.5883 26.7148C19.6658 27.9221 20.8913 28.9969 22.2374 29.9154C24.9708 31.7849 27.9869 33.2304 31.1776 34.2002C34.4109 35.202 37.7392 35.888 41.1128 36.2481C44.5204 36.5902 47.9467 36.7243 51.3716 36.6496C58.2488 36.4536 65.1359 35.5867 71.9474 34.2876L74.5018 33.801L77.044 33.2388C78.7469 32.8633 80.4352 32.4971 82.1162 32.0578L84.6389 31.4153C85.4831 31.2098 86.3223 30.9878 87.1592 30.7421L89.6698 30.0335L90.925 29.6792L91.5527 29.5021L91.8665 29.4123L92.0222 29.3674C92.0903 29.4029 92.0757 29.1596 92.2873 29.6934L93.9586 35.4048C94.0632 35.9646 93.9416 35.7497 93.9027 35.8135L93.7397 35.8513L93.4137 35.9316L92.7593 36.0875L91.4529 36.404L88.8426 37.0323C87.9766 37.2496 87.1008 37.4433 86.2202 37.6252L83.5904 38.1826C81.8413 38.5747 80.0703 38.8912 78.3017 39.2078L75.6573 39.6825L72.9813 40.0841C65.8632 41.1376 58.6429 41.8107 51.3691 41.6619C47.7189 41.5762 44.078 41.2662 40.4681 40.7336C36.8229 40.174 33.2449 39.2592 29.7885 38.0031C26.2795 36.7242 22.9967 34.9233 20.0577 32.6649C18.5895 31.5023 17.2507 30.1937 16.0632 28.7604C15.466 28.0336 14.9207 27.2681 14.4308 26.4692C14.1876 26.07 13.9443 25.6519 13.7375 25.2291C13.6353 25.0071 13.5283 24.7945 13.431 24.5677C13.3337 24.341 13.2461 24.1378 13.1391 23.8142L16.3721 22.8623Z" fill="white"/>
</g>
<defs>
<clipPath id="clip0_0_153">
<rect width="94" height="50" fill="white"/>
</clipPath>
</defs>
</svg>
